<?xml version="1.0" encoding="UTF-8"?>
<svg id="Camada_2" xmlns="http://www.w3.org/2000/svg" version="1.1" viewBox="0 0 397.4 397.4">
  <!-- Generator: Adobe Illustrator 29.3.1, SVG Export Plug-In . SVG Version: 2.1.0 Build 151)  -->
  <defs>
    <style>
      .st0 {
        fill: #fff;
      }
    </style>
  </defs>
  <g id="objects">
    <g>
      <path class="st0" d="M257.6,94.5h-107.8c-27.8,0-50.3,22.5-50.3,50.3v107.8c0,27.8,22.5,50.3,50.3,50.3h107.8c27.8,0,50.3-22.5,50.3-50.3v-107.8c0-27.8-22.5-50.3-50.3-50.3h0ZM289.9,249c0,19.8-16.1,35.9-35.9,35.9h-100.6c-19.8,0-35.9-16.1-35.9-35.9v-100.6c0-19.8,16.1-35.9,35.9-35.9h100.6c19.8,0,35.9,16.1,35.9,35.9v100.6h0Z"/>
      <path class="st0" d="M203.8,144.8c-29.8,0-53.9,24.1-53.9,53.9s24.1,53.9,53.9,53.9,53.9-24.1,53.9-53.9-24.1-53.9-53.9-53.9h0ZM203.8,234.6c-19.8,0-35.9-16.1-35.9-35.9s16.1-35.9,35.9-35.9,35.9,16.1,35.9,35.9-16.1,35.9-35.9,35.9Z"/>
      <path class="st0" d="M261.3,152c-5.9,0-10.8-4.8-10.8-10.8s4.8-10.8,10.8-10.8,10.8,4.8,10.8,10.8-4.8,10.8-10.8,10.8Z"/>
    </g>
  </g>
</svg>